<?xml version="1.0" standalone="no"?>
<!DOCTYPE svg PUBLIC "-//W3C//DTD SVG 20010904//EN"
 "http://www.w3.org/TR/2001/REC-SVG-20010904/DTD/svg10.dtd">
<svg version="1.0" xmlns="http://www.w3.org/2000/svg"
 width="3232.000000pt" height="2942.000000pt" viewBox="0 0 3232.000000 2942.000000"
 preserveAspectRatio="xMidYMid meet">

<g transform="translate(0.000000,2942.000000) scale(0.100000,-0.100000)"
fill="#000000" stroke="none">
<path d="M21099 29393 c-9 -10 -14 -42 -14 -89 0 -69 -2 -75 -33 -107 -19 -20
-63 -46 -103 -62 -39 -16 -72 -32 -75 -37 -8 -13 -60 -9 -96 6 -119 53 -168
66 -245 66 -43 0 -103 -7 -133 -15 -94 -27 -146 -29 -196 -10 -35 13 -61 16
-108 11 -88 -9 -152 6 -274 65 -129 62 -138 66 -182 75 -19 3 -60 19 -90 34
-79 40 -169 48 -240 22 -111 -40 -127 -48 -165 -79 -48 -40 -67 -43 -330 -46
-237 -2 -237 -2 -335 -86 -108 -93 -132 -99 -375 -107 -208 -6 -284 -16 -463
-59 -206 -50 -470 -125 -517 -146 -22 -10 -51 -20 -65 -21 -21 -3 -24 1 -22
22 8 50 120 192 195 246 40 29 48 39 45 62 -4 37 -47 40 -135 9 -174 -63 -236
-89 -271 -112 -20 -14 -41 -25 -47 -25 -22 0 -283 -180 -293 -202 -2 -4 -24
-23 -50 -42 -26 -20 -69 -54 -97 -76 -27 -22 -90 -71 -140 -108 -49 -38 -126
-102 -170 -143 -44 -41 -102 -87 -130 -103 -27 -16 -52 -33 -55 -37 -5 -7 -46
-31 -180 -102 -36 -19 -94 -53 -130 -76 -36 -23 -81 -49 -100 -57 -19 -9 -66
-34 -105 -57 -134 -77 -129 -74 -620 -325 -221 -113 -250 -130 -330 -192 -53
-41 -135 -94 -400 -255 -125 -77 -662 -243 -795 -247 -8 0 -37 -6 -65 -13 -73
-19 -230 -35 -385 -38 -212 -3 -490 4 -550 15 -147 28 -310 88 -361 134 -8 8
-20 14 -26 14 -17 0 -64 60 -84 108 -22 51 -23 77 -7 189 12 80 11 84 -9 105
-22 22 -52 20 -84 -5 -23 -18 -102 -199 -133 -307 -15 -52 -34 -111 -41 -130
-17 -41 -88 -293 -104 -365 -6 -27 -17 -97 -26 -155 -8 -58 -20 -132 -27 -165
-7 -36 -12 -170 -12 -338 -1 -267 0 -279 19 -295 16 -13 21 -31 23 -81 1 -35
9 -90 17 -121 19 -74 151 -346 171 -354 31 -12 54 -6 70 19 14 22 15 32 5 64
-24 82 -7 206 40 286 22 37 34 41 90 25 l37 -10 4 -153 c4 -121 10 -172 31
-252 23 -88 70 -208 104 -270 48 -86 231 -295 258 -295 27 0 46 13 61 41 15
30 15 36 -41 334 -26 145 -15 276 37 408 35 88 42 86 51 -13 8 -88 38 -180
103 -316 47 -99 67 -128 137 -201 45 -47 99 -99 120 -115 34 -27 41 -29 64
-19 22 10 24 16 19 44 -10 56 -14 70 -36 152 -26 100 -41 268 -30 360 13 116
60 256 60 179 0 -79 84 -234 177 -328 51 -51 61 -57 87 -52 50 10 56 24 61
137 3 95 24 228 44 282 6 17 10 10 19 -38 22 -129 67 -212 137 -255 63 -39 93
-9 115 115 6 39 17 83 24 99 l12 29 34 -54 c72 -112 148 -177 195 -165 27 7
39 35 37 91 -1 22 9 66 22 98 l23 58 24 -30 c13 -16 53 -53 88 -81 51 -40 71
-50 95 -48 28 3 35 11 74 92 l43 89 28 -44 c47 -72 104 -121 137 -117 25 3 34
14 70 88 32 67 42 81 48 65 8 -28 72 -127 88 -137 7 -4 26 -8 41 -8 23 0 34
10 68 65 23 36 44 65 47 65 3 0 31 -25 63 -55 79 -75 98 -74 182 8 35 35 68
71 74 82 11 19 14 19 139 1 154 -21 443 -39 826 -52 137 -4 236 -1 370 11 171
15 225 24 448 74 47 10 130 27 185 36 121 21 258 60 304 86 32 19 36 19 90 4
65 -18 131 -45 131 -54 0 -4 -24 -15 -52 -25 -62 -22 -305 -140 -327 -160 -9
-7 -65 -42 -125 -77 -168 -99 -326 -245 -517 -479 -135 -165 -203 -257 -234
-320 -72 -143 -207 -340 -266 -387 -20 -15 -50 -45 -68 -65 -18 -21 -49 -51
-69 -67 l-37 -29 -100 34 c-77 26 -105 32 -122 24 -23 -10 -24 -13 -43 -120
-18 -104 -15 -100 -74 -100 -78 0 -87 -15 -79 -119 l6 -84 -47 28 c-47 27 -47
27 -92 10 -53 -20 -64 -38 -64 -103 0 -27 -3 -70 -6 -95 -6 -42 -8 -45 -26
-36 -25 14 -82 3 -99 -18 -8 -9 -14 -41 -15 -77 -1 -186 -1 -186 -33 -186 -15
0 -45 11 -65 25 -44 30 -77 32 -101 5 -17 -18 -17 -25 -2 -122 9 -56 15 -104
13 -105 -2 -2 -36 19 -77 47 -59 40 -79 62 -104 108 -26 49 -34 57 -62 60 -25
3 -35 -2 -48 -22 -9 -14 -14 -30 -10 -35 3 -6 7 -76 8 -155 l2 -145 -33 32
c-19 18 -46 60 -62 94 -31 67 -59 85 -99 63 -25 -13 -23 6 -22 -255 l2 -210
-23 26 c-13 14 -35 47 -51 73 -25 43 -30 47 -60 44 -46 -4 -61 -42 -59 -142 2
-66 9 -95 38 -165 19 -47 40 -99 46 -116 22 -60 91 -191 119 -227 16 -20 29
-40 29 -44 0 -7 87 -136 120 -178 26 -34 124 -140 146 -157 11 -10 46 -43 77
-73 31 -31 90 -77 129 -103 92 -60 292 -163 315 -163 10 0 45 -11 78 -24 171
-68 197 -75 283 -73 70 2 86 6 98 22 25 33 16 57 -45 115 -70 67 -92 127 -93
255 -1 94 14 146 77 276 109 224 255 424 486 669 55 58 118 130 140 160 128
172 397 455 489 515 71 46 207 106 365 161 94 32 159 50 415 110 58 13 125 31
150 39 90 28 257 73 330 89 41 8 118 24 170 36 52 11 129 27 170 36 41 8 108
26 148 39 51 17 79 22 95 16 72 -29 266 -127 352 -178 368 -221 575 -354 690
-442 1426 -1091 2373 -2715 2776 -4761 91 -459 165 -1081 177 -1485 1 -22 6
-112 11 -200 31 -546 -5 -1267 -94 -1873 -250 -1697 -971 -3230 -2129 -4522
-351 -392 -775 -783 -1211 -1116 -1038 -795 -2253 -1363 -3480 -1628 -329 -71
-587 -109 -960 -142 -232 -21 -865 -24 -1125 -7 -195 13 -440 38 -513 53 -26
6 -72 10 -102 10 -171 0 -810 142 -1260 281 -322 99 -738 261 -1084 423 -210
98 -576 289 -712 371 -50 31 -98 54 -105 51 -8 -3 -62 27 -122 67 -59 40 -179
120 -267 176 -503 326 -977 746 -1485 1317 -335 377 -695 839 -959 1231 -114
168 -123 177 -199 204 l-33 11 46 49 c228 244 116 636 -209 737 -32 10 -87 15
-147 15 l-97 0 -22 56 c-13 31 -35 79 -51 107 -16 27 -44 92 -64 143 l-36 92
44 52 c94 113 131 211 131 352 0 152 -50 272 -155 375 -68 66 -140 104 -253
132 -79 20 -84 23 -88 49 -3 16 -2 32 1 34 12 13 -3 100 -49 275 -88 345 -123
522 -169 856 -65 482 -91 861 -91 1359 0 261 -1 284 -20 320 -34 67 -25 125
19 125 66 0 202 56 276 114 134 106 197 231 197 396 0 165 -62 290 -198 397
-49 38 -155 90 -203 99 -33 7 -33 7 -26 48 3 22 15 101 26 175 19 130 28 181
34 181 1 0 22 -7 46 -16 65 -24 208 -22 281 4 74 27 158 83 204 136 132 152
185 386 126 557 -55 160 -176 280 -338 334 l-60 21 54 174 c174 563 397 995
765 1487 214 286 466 556 604 649 178 119 431 217 743 289 305 70 402 77 1133
82 l617 5 -9 -24 c-20 -54 -23 -134 -7 -198 76 -296 410 -437 672 -284 69 40
151 130 187 204 28 57 32 75 32 150 0 47 -4 100 -8 118 l-9 32 189 -1 c103 0
213 -3 243 -6 l55 -5 0 -67 c1 -227 171 -418 403 -453 226 -33 454 109 519
325 9 29 16 87 17 130 l1 78 30 -5 c17 -3 172 -6 345 -8 364 -3 366 -2 402 80
19 43 20 59 15 217 -20 517 -187 1105 -439 1538 -141 244 -319 455 -528 628
-353 293 -918 524 -1390 570 -90 8 -282 10 -685 6 -466 -5 -638 -11 -1025 -36
-728 -48 -1336 -108 -1620 -161 -196 -37 -678 -151 -828 -196 -57 -18 -93 -23
-115 -18 -28 6 -160 66 -241 111 -41 22 -57 15 -446 -178 -910 -452 -1555
-803 -1965 -1071 -523 -341 -843 -638 -967 -897 l-41 -86 6 -165 c3 -91 8
-172 11 -180 4 -10 -39 -76 -125 -190 -72 -96 -141 -189 -153 -206 -11 -17
-46 -65 -76 -105 -31 -41 -75 -105 -100 -144 -24 -38 -65 -99 -91 -135 -25
-36 -76 -119 -114 -185 -37 -66 -99 -169 -137 -230 -38 -60 -73 -117 -78 -125
-5 -8 -29 -49 -53 -90 -24 -41 -72 -129 -107 -195 -34 -66 -82 -151 -105 -190
-23 -38 -71 -126 -107 -195 -36 -69 -107 -201 -158 -295 -142 -260 -162 -305
-386 -877 -29 -76 -63 -173 -75 -215 -12 -43 -37 -123 -55 -178 -28 -85 -110
-394 -169 -635 -8 -36 -22 -85 -30 -110 -40 -122 -170 -820 -224 -1200 -36
-251 -75 -599 -92 -823 -14 -185 -7 -1389 10 -1682 55 -928 145 -1558 347
-2405 14 -58 32 -134 40 -170 33 -138 163 -547 232 -730 30 -80 71 -192 92
-250 21 -58 92 -229 158 -380 474 -1089 1078 -2140 1776 -3092 540 -737 1267
-1524 1901 -2057 55 -47 129 -112 165 -147 36 -34 124 -110 195 -169 72 -58
140 -115 153 -126 12 -10 26 -19 31 -19 5 0 11 -3 13 -7 1 -5 39 -39 83 -78
44 -38 82 -72 85 -75 3 -3 25 -21 50 -40 25 -19 74 -59 110 -90 36 -31 92 -76
125 -101 33 -24 62 -46 65 -49 3 -3 28 -20 55 -37 28 -17 70 -46 95 -63 76
-52 154 -101 175 -110 11 -4 97 -59 192 -121 94 -63 199 -132 233 -154 34 -22
81 -52 103 -67 23 -15 89 -53 147 -84 58 -32 157 -89 220 -127 63 -39 160 -95
215 -127 55 -31 132 -74 170 -97 168 -98 791 -420 911 -471 28 -12 80 -35 115
-51 347 -160 715 -296 1106 -408 35 -10 63 -21 63 -24 0 -4 -24 -38 -52 -76
-106 -137 -151 -214 -177 -296 -27 -88 -13 -127 46 -127 8 0 115 49 237 109
121 61 255 122 296 136 147 52 310 52 451 1 103 -37 161 -71 326 -189 122 -88
172 -117 380 -223 257 -132 295 -139 693 -138 275 1 300 3 365 23 39 12 122
37 185 55 160 47 427 140 503 176 35 16 67 30 71 30 3 0 -18 -30 -48 -66 -62
-76 -116 -171 -116 -206 0 -28 28 -58 55 -58 10 0 32 9 49 19 58 36 213 92
337 122 120 29 523 41 614 18 22 -6 87 -21 145 -34 169 -39 397 -101 505 -138
55 -19 174 -53 265 -75 151 -37 180 -40 345 -46 99 -3 230 -10 292 -16 89 -9
154 -8 315 5 112 8 226 20 253 26 137 28 197 43 278 66 48 15 90 24 93 21 3
-3 -8 -38 -25 -77 -16 -39 -34 -94 -40 -123 -6 -29 -19 -96 -31 -148 -11 -52
-30 -179 -40 -281 -18 -169 -30 -245 -60 -364 -16 -66 -13 -93 15 -111 34 -22
71 -11 90 26 32 62 133 165 205 210 39 25 97 64 128 88 91 69 181 118 272 147
47 15 119 40 160 56 100 38 457 136 545 149 39 6 90 15 115 20 54 11 272 44
430 65 63 8 203 33 310 56 360 74 425 87 475 94 78 11 258 68 395 125 69 29
130 55 135 60 6 4 62 26 125 48 63 22 144 54 180 70 95 43 422 201 445 214 11
7 54 29 95 50 90 45 135 71 215 122 158 102 255 170 304 213 76 67 281 274
281 284 0 4 6 14 13 21 7 7 27 33 44 58 18 25 56 71 87 102 30 32 67 74 82 95
16 21 49 61 74 89 25 27 71 88 103 135 32 46 73 105 91 130 l33 47 11 -62 c6
-33 18 -113 27 -176 9 -63 28 -153 42 -200 30 -101 100 -285 121 -320 47 -77
85 -130 121 -170 22 -25 41 -48 41 -52 0 -18 162 -148 183 -148 44 0 49 38 16
116 -51 118 -72 226 -66 329 7 98 32 194 68 253 21 34 45 78 176 318 27 51 71
120 97 155 26 35 59 83 73 108 51 89 138 217 178 261 23 25 66 77 96 116 76
98 257 248 414 343 138 84 227 141 259 164 17 14 70 46 116 73 138 79 342 235
420 319 14 15 52 49 85 75 33 27 96 83 140 126 44 42 106 99 137 127 32 27 81
80 110 118 28 38 52 69 52 69 1 0 2 -152 4 -338 4 -362 9 -424 42 -530 36
-114 108 -172 155 -125 15 14 16 29 10 107 -4 50 -7 111 -7 136 0 74 31 293
53 366 11 38 26 93 34 122 8 29 23 69 34 90 10 20 21 49 24 63 8 32 132 219
158 237 10 7 19 19 19 25 1 27 95 167 164 242 40 44 91 101 112 126 21 25 59
61 83 80 25 19 72 63 105 99 34 35 175 179 315 320 140 140 283 289 317 330
65 78 200 211 271 267 70 56 164 195 266 396 36 69 100 261 100 300 1 20 3 37
7 37 3 0 16 -19 30 -42 14 -23 32 -53 40 -67 14 -23 53 -81 177 -266 22 -33
58 -87 79 -120 20 -33 76 -99 123 -148 66 -68 91 -87 112 -87 39 0 59 24 59
70 0 31 -9 50 -43 92 -106 131 -148 195 -177 269 -16 43 -30 87 -30 97 0 10
-9 45 -20 78 -66 188 -66 567 -2 800 28 99 70 213 94 254 11 19 41 73 66 120
25 47 63 113 84 148 21 34 38 65 38 67 0 5 103 161 169 258 18 26 38 47 45 47
16 0 118 -106 145 -152 13 -21 37 -68 56 -105 18 -38 56 -106 85 -153 66 -108
82 -157 111 -340 17 -107 18 -386 3 -510 -13 -110 -47 -219 -114 -370 -21 -47
-47 -114 -58 -150 -12 -36 -44 -111 -71 -168 -28 -56 -51 -107 -51 -112 0 -5
-6 -15 -14 -23 -8 -8 -28 -43 -44 -78 -16 -35 -46 -91 -66 -124 -20 -33 -69
-125 -108 -205 -39 -80 -93 -180 -120 -224 -26 -43 -58 -101 -70 -129 -13 -29
-78 -126 -147 -217 -68 -91 -142 -194 -164 -230 -21 -36 -62 -90 -91 -120 -29
-30 -69 -77 -88 -105 -37 -52 -132 -160 -399 -457 -134 -148 -238 -255 -534
-543 -28 -27 -74 -68 -101 -90 -27 -21 -87 -78 -134 -125 -121 -121 -274 -253
-425 -364 -71 -52 -152 -115 -180 -139 -27 -24 -84 -67 -126 -95 -42 -28 -114
-83 -160 -123 -46 -40 -113 -92 -149 -116 -212 -141 -443 -315 -535 -403 -38
-37 -115 -97 -170 -134 -55 -37 -127 -90 -160 -117 -33 -28 -127 -96 -210
-151 -82 -55 -161 -110 -175 -123 -14 -13 -73 -56 -131 -97 -59 -40 -144 -101
-190 -135 -218 -163 -400 -293 -459 -330 -81 -50 -286 -163 -296 -163 -4 0
-88 -44 -188 -97 -100 -53 -197 -105 -216 -114 -19 -10 -81 -44 -137 -77 -57
-32 -144 -77 -195 -98 -51 -21 -142 -62 -202 -92 -61 -29 -187 -89 -280 -132
-256 -117 -297 -136 -346 -164 -82 -46 -150 -74 -228 -96 -42 -12 -120 -35
-172 -52 -118 -38 -213 -64 -265 -73 -22 -4 -78 -19 -125 -35 -145 -48 -321
-100 -342 -100 -11 0 -27 -4 -37 -10 -10 -5 -43 -14 -72 -19 -30 -5 -108 -22
-174 -36 -104 -23 -173 -34 -441 -74 -100 -15 -470 1 -589 25 -119 24 -155 17
-173 -34 -13 -38 8 -89 40 -97 100 -22 136 -28 233 -36 61 -6 214 -14 340 -19
584 -23 730 -33 837 -56 29 -6 560 -17 803 -16 160 0 435 16 545 31 316 44
729 83 1080 102 273 15 273 15 391 28 58 6 121 16 140 21 18 6 52 10 75 10 22
0 67 5 100 11 340 60 412 76 541 115 142 43 465 124 496 124 13 0 64 14 115
30 51 17 101 30 110 30 39 0 552 178 692 240 52 23 142 60 199 82 58 21 164
68 236 104 73 35 135 64 138 64 4 0 69 29 145 66 302 144 394 192 542 284 47
28 106 63 131 75 25 13 72 41 105 62 32 22 88 58 124 81 92 59 180 123 180
132 0 9 133 102 204 144 28 16 113 72 191 126 77 53 174 115 215 137 41 23
134 85 205 138 72 54 171 125 220 158 122 82 172 123 299 246 165 161 346 345
346 353 0 4 39 40 88 80 48 41 110 98 139 128 29 30 57 60 64 65 6 6 43 43 82
84 138 142 272 272 316 304 67 49 212 195 261 262 24 33 93 107 154 165 229
220 354 349 397 410 13 19 82 93 153 165 71 71 166 173 210 226 45 52 137 158
206 234 69 76 146 170 171 209 25 39 53 77 62 85 9 7 17 20 17 29 0 8 12 31
28 51 28 37 92 140 92 148 0 14 81 136 125 188 27 33 55 67 60 76 6 9 23 36
39 60 16 24 44 73 63 108 18 35 37 69 42 75 5 6 24 47 41 91 17 44 40 96 51
115 10 19 34 78 53 130 19 52 50 128 71 168 20 40 43 97 51 125 9 29 28 79 44
112 16 33 47 103 70 155 23 52 61 137 86 187 48 101 71 165 104 287 11 43 29
97 39 120 10 22 28 75 41 116 60 203 57 197 155 390 41 80 95 205 95 218 0 5
7 23 15 38 8 16 15 38 15 49 0 12 4 25 10 31 5 5 17 38 26 74 9 36 23 77 31
93 7 15 18 53 24 85 5 31 21 107 34 167 30 139 40 209 60 420 8 94 20 217 26
275 9 91 59 307 114 490 7 25 28 108 45 185 18 77 50 214 72 305 58 247 66
284 83 415 9 66 26 179 39 250 46 250 63 418 86 838 6 103 15 254 21 335 9
135 14 1085 5 1100 -2 4 -7 57 -10 117 -15 228 -76 888 -91 990 -3 17 -9 107
-15 200 -5 94 -14 206 -19 250 -6 44 -15 145 -21 225 -6 80 -13 154 -15 165
-1 11 -6 56 -9 100 -9 101 -23 184 -52 305 -12 52 -30 142 -39 200 -28 186
-49 283 -99 465 -14 50 -25 109 -25 132 -1 24 -10 66 -21 95 -11 29 -20 70
-20 90 0 21 -9 93 -20 160 -11 68 -24 164 -30 215 -9 86 -37 233 -58 313 -32
118 -88 297 -119 374 -38 96 -49 128 -137 379 -30 86 -68 185 -84 220 -17 34
-35 80 -42 102 -7 22 -20 56 -30 75 -52 104 -92 197 -105 243 -36 135 -96 282
-204 502 -65 132 -126 260 -136 285 -9 25 -21 52 -26 60 -5 8 -13 25 -18 37
-37 84 -138 283 -156 308 -12 17 -32 48 -43 71 -12 23 -41 64 -65 92 -24 29
-50 64 -58 79 -8 15 -47 72 -87 126 -149 200 -266 374 -305 457 -46 95 -146
232 -263 362 -44 48 -101 117 -129 154 -27 36 -70 93 -95 125 -25 32 -74 99
-109 149 -36 49 -68 90 -72 90 -4 0 -10 9 -14 19 -3 11 -32 51 -63 90 -31 38
-77 99 -102 136 -25 36 -67 92 -94 123 -50 59 -94 121 -111 159 -27 60 -441
491 -540 563 -33 24 -121 105 -196 179 -74 75 -201 200 -282 279 -197 193
-353 390 -432 548 -20 40 -43 78 -51 85 -8 6 -14 15 -14 19 0 4 -31 54 -69
111 -136 207 -180 298 -277 584 -24 72 -48 137 -54 145 -5 8 -16 29 -23 45 -8
17 -46 82 -84 145 -39 63 -81 135 -93 160 -23 45 -232 258 -273 278 -97 46
-158 71 -192 78 -45 9 -243 12 -290 4 -27 -5 -32 0 -72 65 -23 39 -82 112
-129 163 -164 176 -286 258 -614 410 -60 28 -175 57 -375 96 -44 9 -161 20
-260 26 -99 5 -209 15 -245 21 -92 16 -382 -7 -520 -41 -292 -71 -410 -112
-410 -144 0 -19 74 -35 215 -46 240 -19 375 -52 563 -137 81 -36 174 -86 207
-109 33 -24 87 -63 120 -86 33 -24 94 -74 135 -113 41 -39 94 -85 118 -104 38
-30 154 -157 209 -229 25 -32 97 -201 89 -209 -9 -9 -79 19 -191 76 -60 31
-117 58 -125 61 -23 8 -193 102 -210 116 -8 7 -58 35 -110 62 -197 103 -307
166 -380 217 -41 29 -104 67 -140 85 -36 18 -90 49 -120 70 -30 20 -82 54
-114 75 -33 21 -89 65 -125 99 -86 80 -194 166 -251 198 -114 65 -316 131
-480 156 l-55 8 70 38 c116 62 333 199 505 319 239 167 351 271 485 447 27 36
59 75 72 87 13 12 23 31 23 43 0 25 -34 60 -59 60 -10 0 -80 -31 -154 -69 -77
-38 -172 -78 -219 -91 -46 -12 -110 -33 -143 -45 -95 -37 -286 -72 -610 -110
-242 -29 -300 -34 -470 -38 l-170 -5 70 18 c39 11 73 19 76 19 3 1 22 12 41
25 20 13 78 38 129 56 107 37 174 78 239 145 29 30 75 61 130 88 68 33 100 56
160 119 70 72 79 78 115 78 48 0 181 -20 325 -49 182 -36 402 -65 480 -63 41
1 111 8 155 16 44 8 152 27 240 42 88 15 171 32 185 38 143 63 389 246 462
345 79 107 109 159 132 231 34 103 34 178 1 287 -29 95 -62 139 -145 191 -30
20 -59 41 -63 49 -4 7 -24 13 -43 13 -49 0 -62 -31 -40 -99 46 -141 -5 -199
-163 -188 -271 20 -383 44 -541 119 -140 66 -282 125 -341 142 -30 9 -90 34
-134 56 -87 45 -123 55 -249 69 -66 8 -100 18 -139 40 -79 44 -232 97 -327
112 -49 8 -150 13 -240 13 -141 -1 -162 -4 -230 -28 -41 -15 -113 -38 -160
-50 -47 -13 -105 -31 -130 -40 -30 -10 -79 -16 -148 -16 -57 0 -135 -6 -175
-14 -40 -8 -112 -20 -162 -25 -79 -10 -98 -9 -160 8 -88 24 -236 78 -247 89
-6 6 -2 34 8 68 26 89 15 219 -26 302 -38 78 -100 147 -162 178 -55 28 -90 31
-109 7z m-5053 -2413 c91 -27 157 -65 207 -119 62 -66 71 -86 71 -166 1 -60
-4 -80 -31 -136 -26 -53 -45 -75 -93 -110 -52 -38 -132 -76 -165 -78 -6 -1
-10 53 -10 141 0 135 -1 146 -27 198 -15 31 -68 102 -118 158 l-90 101 36 19
c43 22 129 19 220 -8z m-346 -104 c-42 -61 -80 -168 -80 -222 0 -55 16 -94 70
-174 29 -43 36 -59 22 -51 -31 16 -120 125 -138 167 -20 47 -20 124 0 161 14
28 139 163 150 163 3 0 -8 -20 -24 -44z m793 -178 c23 -18 58 -47 78 -64 l37
-32 -52 -45 c-49 -42 -162 -107 -186 -107 -6 0 -2 13 10 30 31 44 61 138 63
197 1 29 3 53 5 53 2 0 22 -15 45 -32z m-1043 -96 c0 -49 29 -113 72 -158 l30
-32 -44 8 c-23 5 -56 13 -71 19 -16 6 -59 18 -95 26 -102 23 -103 26 -46 78
155 142 154 141 154 59z m-3900 -975 c0 -5 -10 -26 -22 -45 -22 -35 -22 -35
-28 -11 -4 13 -10 41 -14 62 l-7 37 36 -17 c19 -9 35 -21 35 -26z m2338 -42
c6 -5 -10 -55 -17 -55 -8 0 -44 37 -56 59 -6 11 -1 12 31 6 21 -4 40 -8 42
-10z m-300 -51 c-15 -31 -28 -63 -28 -71 0 -8 -4 -11 -10 -8 -13 8 -56 83 -65
113 -6 21 -4 22 63 22 l69 0 -29 -56z m-294 -21 c-13 -32 -24 -64 -24 -70 0
-14 -16 -18 -23 -5 -3 4 -8 33 -12 64 -8 61 -7 62 61 67 l22 1 -24 -57z
m-1137 33 c1 -1 -15 -56 -37 -123 -48 -149 -60 -214 -59 -321 0 -46 -1 -86 -4
-88 -7 -8 -86 179 -102 243 -16 65 -32 261 -22 285 4 12 25 14 114 10 59 -2
109 -5 110 -6z m2026 -16 l-17 -30 -13 23 c-18 33 -16 37 18 37 l30 0 -18 -30z
m-1218 -7 c-4 -16 -15 -73 -24 -127 l-17 -99 -27 64 c-14 35 -31 83 -37 107
-6 24 -13 49 -16 57 -4 11 7 15 48 18 29 2 59 4 67 5 10 2 11 -5 6 -25z m1495
20 c0 -17 -19 -35 -29 -29 -18 12 -12 36 9 36 11 0 20 -3 20 -7z m249 -2 c8
-5 9 -11 3 -15 -5 -3 -15 1 -22 9 -14 16 -3 20 19 6z m-2123 -29 c-18 -58 -39
-180 -45 -257 l-6 -90 -27 70 c-33 88 -46 143 -54 231 l-6 69 71 -3 c62 -3 71
-6 67 -20z m-3176 -1114 c64 -69 67 -300 3 -370 -9 -10 -30 -18 -48 -18 -18 0
-39 8 -48 18 -64 71 -62 298 4 368 28 30 62 31 89 2z m1665 -247 c150 -111
261 -206 399 -341 287 -280 392 -430 446 -636 11 -43 20 -84 20 -91 0 -10 -69
-13 -359 -13 l-358 0 -7 54 c-8 73 -50 213 -93 314 -101 234 -325 514 -541
676 -38 28 -71 56 -73 61 -4 11 206 22 391 21 l115 -1 60 -44z m4483 -261 c-7
-10 -14 -18 -15 -16 -6 6 9 36 18 36 5 0 4 -9 -3 -20z m-9133 -47 c195 -47
362 -195 421 -373 27 -81 25 -226 -5 -305 -67 -178 -203 -299 -406 -360 -82
-25 -266 -26 -355 -1 -258 70 -431 280 -431 521 0 170 83 325 222 415 180 116
362 150 554 103z m8811 -321 c8 -5 4 -18 -13 -42 -22 -30 -24 -32 -19 -10 3
14 6 33 6 43 0 18 8 21 26 9z m-156 -249 c0 -5 -7 -17 -15 -27 -14 -19 -15
-19 -15 7 0 17 5 27 15 27 8 0 15 -3 15 -7z m-150 -255 c0 -16 -46 -75 -53
-68 -3 3 -8 22 -12 43 l-7 37 36 0 c22 0 36 -5 36 -12z m-9941 -45 c222 -61
379 -289 357 -519 -18 -177 -121 -324 -283 -401 -330 -158 -714 78 -715 440
-1 143 51 266 155 364 130 123 307 165 486 116z m9653 -116 c25 -20 58 -41 73
-47 l26 -10 -55 -57 c-31 -31 -57 -55 -59 -52 -10 11 -35 89 -41 124 -4 22 -9
53 -13 70 -6 33 -10 35 69 -28z m-191 -216 c35 -24 66 -46 69 -49 7 -6 -92
-92 -107 -92 -17 0 -63 135 -63 189 0 21 2 22 19 10 10 -8 47 -34 82 -58z
m-181 -251 c0 -5 -4 -10 -10 -10 -5 0 -10 5 -10 10 0 6 5 10 10 10 6 0 10 -4
10 -10z m-10429 -361 c152 -44 281 -170 335 -331 24 -70 24 -223 1 -296 -36
-114 -112 -213 -214 -279 -337 -215 -784 24 -785 420 -1 142 48 262 147 361
136 136 322 181 516 125z m-1179 -2156 c82 -39 151 -105 186 -181 23 -49 27
-70 27 -147 0 -77 -4 -98 -27 -147 -35 -75 -104 -142 -186 -181 -62 -30 -75
-32 -172 -32 -97 0 -110 2 -172 32 -278 132 -289 508 -18 648 68 36 113 45
205 42 77 -2 100 -7 157 -34z m-640 -1105 c228 -106 297 -379 150 -592 -15
-22 -53 -59 -85 -82 -195 -144 -469 -70 -576 156 -23 48 -26 68 -26 160 0 93
3 112 26 161 45 96 116 163 218 206 80 33 211 30 293 -9z m-1093 -1900 c124
-42 227 -139 290 -272 53 -112 66 -172 65 -301 -1 -121 -16 -185 -67 -295 -40
-85 -159 -206 -240 -244 -332 -155 -687 124 -687 539 0 237 122 457 303 549
112 57 218 65 336 24z m-140 -1568 c120 -56 214 -170 257 -315 24 -81 24 -239
0 -320 -90 -302 -394 -455 -653 -329 -60 29 -146 104 -186 162 l-27 38 -6 265
-6 264 32 47 c42 64 117 134 179 169 78 45 143 59 247 55 78 -3 102 -8 163
-36z m-100 -1486 c87 -21 172 -67 239 -129 111 -101 156 -212 156 -385 0 -74
-6 -121 -18 -160 -62 -187 -207 -334 -382 -386 -81 -24 -240 -25 -311 0 -51
17 -52 18 -58 64 -3 26 -12 85 -20 132 -45 266 -75 491 -90 676 l-6 81 38 25
c137 91 298 120 452 82z m2906 -7506 c162 -34 337 -105 418 -172 198 -163 247
-247 247 -431 0 -84 -16 -132 -63 -183 l-21 -23 -134 133 c-200 199 -520 543
-639 689 -12 15 -8 16 39 12 29 -2 98 -14 153 -25z m1335 -1330 c98 -31 197
-86 261 -146 59 -55 109 -137 109 -181 0 -31 -21 -91 -32 -91 -20 0 -558 445
-558 461 0 10 143 -18 220 -43z"/>
</g>
</svg>
